<svg width="0" height="0" class="hidden">
  <symbol xmlns="http://www.w3.org/2000/svg" viewBox="0 0 12 12" id="star">
    <path d="M11.7978 4.70388L8.23226 7.17725L9.2791 11.1967L5.81457 8.769L2.12683 11.068L3.55093 7.09326L0.225586 4.49555L4.57008 4.46687L6.20245 0.562317L7.46284 4.51892L11.7978 4.70388Z"></path>
  </symbol>
  <symbol width="17" height="17" viewBox="0 0 17 17" xmlns="http://www.w3.org/2000/svg" id="cart">
    <path fill-rule="evenodd" clip-rule="evenodd" d="M13.7242 11.9932C14.1854 11.9924 14.632 11.8317 14.9879 11.5385C15.3439 11.2452 15.5871 10.8377 15.6762 10.3852L16.6762 5.38519C16.7341 5.0954 16.7271 4.79634 16.6556 4.50958C16.5842 4.22282 16.4501 3.95548 16.2629 3.72675C16.0758 3.49801 15.8403 3.31355 15.5734 3.18671C15.3065 3.05987 15.0147 2.99379 14.7192 2.99316H4.7632V1.99316C4.7632 1.72795 4.65783 1.47361 4.47029 1.28607C4.28276 1.09854 4.02842 0.993164 3.7632 0.993164H1.7722C1.50699 0.993164 1.25262 1.09854 1.06508 1.28607C0.877545 1.47361 0.772204 1.72795 0.772204 1.99316C0.772204 2.25838 0.877545 2.51272 1.06508 2.70026C1.25262 2.88779 1.50699 2.99316 1.7722 2.99316H2.7722V12.9932C2.37626 12.9914 1.9887 13.1072 1.65862 13.3259C1.32854 13.5445 1.07077 13.8563 0.918017 14.2216C0.765261 14.5868 0.724373 14.9893 0.800524 15.3778C0.876675 15.7664 1.06644 16.1236 1.34578 16.4042C1.62513 16.6848 1.98147 16.8761 2.36968 16.954C2.75788 17.0319 3.1605 16.9929 3.52648 16.8418C3.89245 16.6907 4.20533 16.4343 4.42549 16.1052C4.64566 15.7761 4.7632 15.3891 4.7632 14.9932H11.7322C11.7338 15.3868 11.852 15.7711 12.0718 16.0977C12.2916 16.4242 12.6033 16.6783 12.9674 16.8278C13.3316 16.9774 13.7318 17.0157 14.1177 16.9379C14.5036 16.8602 14.8578 16.6698 15.1355 16.3909C15.4133 16.112 15.6023 15.757 15.6785 15.3708C15.7547 14.9847 15.7148 14.5845 15.5638 14.221C15.4128 13.8575 15.1575 13.5468 14.8301 13.3283C14.5027 13.1098 14.1178 12.9932 13.7242 12.9932H4.7632V11.9932H13.7242ZM14.7242 4.99316L13.7242 9.99316H4.7632V4.99316H14.7192H14.7242Z"/>
  </symbol>
  <symbol width="17" height="15" viewBox="0 0 17 15" xmlns="http://www.w3.org/2000/svg" id="heart">
    <path fill-rule="evenodd" clip-rule="evenodd" d="M11.7464 2.99317C12.324 2.99413 12.889 3.1618 13.3736 3.47602C13.8582 3.79025 14.2418 4.23768 14.4783 4.7646C14.7149 5.29151 14.7942 5.87548 14.707 6.44642C14.6197 7.01736 14.3695 7.55096 13.9864 7.98316C13.4364 8.60316 8.74639 12.9932 8.74639 12.9932C8.74639 12.9932 4.04639 8.60315 3.49639 7.97315C3.01123 7.42795 2.74419 6.72298 2.74639 5.99317C2.74639 5.19752 3.06244 4.43444 3.62505 3.87183C4.18766 3.30923 4.95074 2.99317 5.74639 2.99317C6.54204 2.99317 7.30512 3.30923 7.86773 3.87183C8.43034 4.43444 8.74639 5.19752 8.74639 5.99317C8.74639 5.19752 9.06244 4.43444 9.62505 3.87183C10.1877 3.30923 10.9507 2.99317 11.7464 2.99317ZM11.7464 0.993172C10.6642 0.991213 9.61095 1.3423 8.74639 1.99317C7.75603 1.26173 6.53063 0.921386 5.30492 1.03736C4.07921 1.15334 2.93934 1.7175 2.10375 2.62171C1.26816 3.52593 0.795556 4.70665 0.77648 5.93769C0.757403 7.16873 1.19324 8.36349 2.00042 9.29316C2.56242 9.93716 6.2614 13.4012 7.3814 14.4472C7.75189 14.7936 8.24014 14.9863 8.74737 14.9863C9.25459 14.9863 9.7429 14.7936 10.1134 14.4472C11.2294 13.4022 14.9134 9.94715 15.4824 9.30415C16.1193 8.58347 16.5348 7.69441 16.6791 6.74354C16.8235 5.79266 16.6905 4.82034 16.2962 3.94312C15.9019 3.06591 15.2629 2.32103 14.4559 1.7978C13.6489 1.27457 12.7082 0.995216 11.7464 0.993172Z"/>
  </symbol>

</svg>