<svg width="8" height="16" viewBox="0 0 8 16" fill="none" xmlns="http://www.w3.org/2000/svg">
<path d="M0.247002 8.34047H1.905V15.1685C1.905 15.2332 1.93071 15.2952 1.97647 15.341C2.02223 15.3868 2.08429 15.4125 2.149 15.4125H4.961C5.02571 15.4125 5.08777 15.3868 5.13353 15.341C5.17929 15.2952 5.205 15.2332 5.205 15.1685V8.37247H7.112C7.1718 8.37238 7.22948 8.35033 7.27409 8.31051C7.31871 8.27069 7.34714 8.21587 7.354 8.15647L7.644 5.64247C7.64794 5.60833 7.64463 5.57373 7.63428 5.54096C7.62392 5.50818 7.60676 5.47796 7.58391 5.45228C7.56106 5.4266 7.53304 5.40604 7.50169 5.39194C7.47035 5.37784 7.43637 5.37053 7.40199 5.37047H5.202V3.79547C5.202 3.32047 5.45801 3.07947 5.96201 3.07947H7.39799C7.46271 3.07947 7.52477 3.05376 7.57053 3.008C7.61628 2.96225 7.642 2.90018 7.642 2.83547V0.528471C7.64253 0.464099 7.61762 0.402124 7.57266 0.356047C7.52771 0.30997 7.46636 0.283524 7.40199 0.282471L5.42101 0.282471H5.33C4.41778 0.28569 3.5373 0.617648 2.85001 1.21747C2.52569 1.50089 2.27685 1.86044 2.12587 2.26382C1.97489 2.66719 1.92649 3.10176 1.985 3.52847V5.37147H0.243996C0.179283 5.37147 0.117223 5.39718 0.0714645 5.44294C0.0257057 5.4887 6.9754e-10 5.55076 6.9754e-10 5.61547V8.09647C-2.44051e-06 8.12877 0.00640291 8.16074 0.0188522 8.19054C0.0313016 8.22034 0.0495488 8.24738 0.072525 8.27007C0.0955012 8.29277 0.122752 8.31068 0.152702 8.32277C0.182653 8.33485 0.214708 8.34087 0.247002 8.34047Z" fill="#385C8E"/>
</svg>
