<svg width="17" height="15" viewBox="0 0 17 15" fill="none" xmlns="http://www.w3.org/2000/svg">
<path fill-rule="evenodd" clip-rule="evenodd" d="M11.7464 2.99317C12.324 2.99413 12.889 3.1618 13.3736 3.47602C13.8582 3.79025 14.2418 4.23768 14.4783 4.7646C14.7149 5.29151 14.7942 5.87548 14.707 6.44642C14.6197 7.01736 14.3695 7.55096 13.9864 7.98316C13.4364 8.60316 8.74639 12.9932 8.74639 12.9932C8.74639 12.9932 4.04639 8.60315 3.49639 7.97315C3.01123 7.42795 2.74419 6.72298 2.74639 5.99317C2.74639 5.19752 3.06244 4.43444 3.62505 3.87183C4.18766 3.30923 4.95074 2.99317 5.74639 2.99317C6.54204 2.99317 7.30512 3.30923 7.86773 3.87183C8.43034 4.43444 8.74639 5.19752 8.74639 5.99317C8.74639 5.19752 9.06244 4.43444 9.62505 3.87183C10.1877 3.30923 10.9507 2.99317 11.7464 2.99317ZM11.7464 0.993172C10.6642 0.991213 9.61095 1.3423 8.74639 1.99317C7.75603 1.26173 6.53063 0.921386 5.30492 1.03736C4.07921 1.15334 2.93934 1.7175 2.10375 2.62171C1.26816 3.52593 0.795556 4.70665 0.77648 5.93769C0.757403 7.16873 1.19324 8.36349 2.00042 9.29316C2.56242 9.93716 6.2614 13.4012 7.3814 14.4472C7.75189 14.7936 8.24014 14.9863 8.74737 14.9863C9.25459 14.9863 9.7429 14.7936 10.1134 14.4472C11.2294 13.4022 14.9134 9.94715 15.4824 9.30415C16.1193 8.58347 16.5348 7.69441 16.6791 6.74354C16.8235 5.79266 16.6905 4.82034 16.2962 3.94312C15.9019 3.06591 15.2629 2.32103 14.4559 1.7978C13.6489 1.27457 12.7082 0.995216 11.7464 0.993172Z" fill="#33A0FF"/>
</svg>
