<svg width="16" height="13" viewBox="0 0 16 13" fill="none" xmlns="http://www.w3.org/2000/svg">
<path d="M15.5646 1.68934C15.0144 1.92947 14.4324 2.0891 13.8366 2.16334C14.4647 1.79087 14.9344 1.20095 15.1566 0.50534C14.5692 0.853707 13.9267 1.09924 13.2566 1.23134C12.8455 0.7913 12.3114 0.485197 11.7238 0.352863C11.1363 0.220529 10.5226 0.268089 9.96243 0.489356C9.4023 0.710624 8.92174 1.09535 8.58327 1.59349C8.24479 2.09162 8.06408 2.68009 8.06464 3.28234C8.06245 3.51223 8.08593 3.74165 8.13464 3.96634C6.94126 3.90775 5.77369 3.59796 4.70824 3.05722C3.64279 2.51649 2.70345 1.75698 1.95164 0.828342C1.56554 1.48824 1.44595 2.27065 1.61731 3.01575C1.78867 3.76085 2.23805 4.41242 2.87364 4.83734C2.39892 4.82474 1.9342 4.69818 1.51864 4.46834V4.50134C1.51928 5.19361 1.75821 5.86456 2.19528 6.40142C2.63234 6.93827 3.24089 7.30831 3.91864 7.44934C3.6619 7.51744 3.39725 7.55106 3.13164 7.54934C2.94102 7.5528 2.75059 7.53571 2.56364 7.49834C2.75724 8.0933 3.13039 8.61368 3.63178 8.98793C4.13317 9.36219 4.73819 9.57194 5.36364 9.58834C4.30304 10.417 2.9956 10.8669 1.64964 10.8663C1.40968 10.868 1.16985 10.8543 0.931641 10.8253C2.30281 11.7088 3.90049 12.1763 5.53164 12.1713C6.65489 12.1792 7.7685 11.9638 8.80778 11.5376C9.84707 11.1114 10.7913 10.483 11.5857 9.68881C12.3801 8.89463 13.0087 7.95052 13.4351 6.91133C13.8615 5.87215 14.0772 4.75859 14.0696 3.63534C14.0696 3.50234 14.0696 3.37434 14.0586 3.24734C14.6513 2.82398 15.1616 2.296 15.5646 1.68934Z" fill="#03A9F4"/>
</svg>
